# xmcd
#
# Track frame offsets: 
#        150
#        17056
#        33407
#
# Disc length: 676 seconds
#
# Revision: 0
# Processed by: cddbd v1.5.2PL0 Copyright (c) Steve Scherf et al.
# Submitted via: ExactAudioCopy v0.95b4
#
DISCID=1a02a203
DTITLE=Third Day - Christmas Offerings (Promo CD Single)
DYEAR=2006
DGENRE=Christmas/Holiday
TTITLE0=Born In Bethlehem
TTITLE1=Joy To The World
TTITLE2=O Come All Ye Faithful
EXTD=
EXTT0=
EXTT1=
EXTT2=
PLAYORDER=
